<svg id="Layer_1" data-name="Layer 1" xmlns="http://www.w3.org/2000/svg" viewBox="0 0 106.15 99.15"><defs><style>.cls-1,.cls-3{fill:#fff;}.cls-2{fill:#d9e1e8;}.cls-3{stroke:#d9e1e8;stroke-linecap:round;stroke-linejoin:round;stroke-width:1.5px;}</style></defs><title>add-image</title><rect class="cls-1" width="106.15" height="99.15" rx="5" ry="5"/><path class="cls-2" d="M101.15,0h-5V1.5h5V0Zm-10,0h-5V1.5h5V0Zm-10,0h-5V1.5h5V0Zm-10,0h-5V1.5h5V0Zm-10,0h-5V1.5h5V0Zm-10,0h-5V1.5h5V0Zm-10,0h-5V1.5h5V0Zm-10,0h-5V1.5h5V0Zm-10,0h-5V1.5h5V0Zm-10,0h-5V1.5h5V0ZM1.52,1.41H1.44l0,0h0l-.12.13h-.1l-.13.16H.94l-.07.1H.71l0,0H.37l0,0H.25l0,.07H.14v0h0v0h0v0H.06v0H0v0H0V6H1.5V5A3.47,3.47,0,0,1,2.56,2.49l-1-1.08ZM1.5,11H0v5H1.5V11Zm0,10H0v5H1.5V21Zm0,10H0v5H1.5V31Zm0,10H0v5H1.5V41Zm0,10H0v5H1.5V51Zm0,10H0v5H1.5V61Zm0,10H0v5H1.5V71Zm0,10H0v5H1.5V81Zm0,10H0v3.15H0v0h0v0h0v0h0v0h0v.06h0A5,5,0,0,0,.34,96l1.4-.54a3.48,3.48,0,0,1-.23-1.26V91Zm2.8,6.58L4,99l.23,0H9v-1.5H5a3.53,3.53,0,0,1-.7-.07ZM19,97.65H14v1.5h5v-1.5Zm10,0H24v1.5h5v-1.5Zm10,0H34v1.5h5v-1.5Zm10,0H44v1.5h5v-1.5Zm10,0H54v1.5h5v-1.5Zm10,0H64v1.5h5v-1.5Zm10,0H74v1.5h5v-1.5Zm10,0H84v1.5h5v-1.5Zm10,0H94v1.5h5v-1.5Zm5.66-3.49A3.49,3.49,0,0,1,103,97.1l.81,1.26a5,5,0,0,0,2.31-4.2Zm1.5-10h-1.5v5h1.5v-5Zm0-10h-1.5v5h1.5v-5Zm0-10h-1.5v5h1.5v-5Zm0-10h-1.5v5h1.5v-5Zm0-10h-1.5v5h1.5v-5Zm0-10h-1.5v5h1.5v-5Zm0-10h-1.5v5h1.5v-5Zm0-10h-1.5v5h1.5v-5Zm-.07-10-1.48.25a3.55,3.55,0,0,1,0,.58V9.16h1.5V5h0v0h0v0h0q0-.22-.05-.44ZM101.15,0V1.5a3.48,3.48,0,0,1,1.37.28L103.12.4a5,5,0,0,0-.61-.22h-1.35Z"/><line class="cls-3" x1="41.79" y1="24.92" x2="64.36" y2="24.92"/><line class="cls-3" x1="53.08" y1="13.64" x2="53.08" y2="36.21"/></svg>