<svg id="Layer_1" data-name="Layer 1" xmlns="http://www.w3.org/2000/svg" viewBox="0 0 118.15 68.12"><defs><style>.cls-1{fill:#f7f9fa;}</style></defs><title>ico-share-illust-top-gray.svg</title><path class="cls-1" d="M116.42,18A27.63,27.63,0,0,0,81,1.73C70.62,5.57,63.69,14.83,59.07,24.8,54.46,14.83,47.53,5.57,37.2,1.73h0A27.59,27.59,0,0,0,18,53.46L56,67.57l.13,0,.41.13.32.09.42.09.32.07.47.06.28,0,.71,0h.07l.71,0,.28,0,.47-.06.32-.07.42-.09.32-.09.41-.13.13,0,38-14.11A27.63,27.63,0,0,0,116.42,18ZM24.16,36.83A9.86,9.86,0,0,1,31,18.35c8.38,3.11,13.63,16,16.51,27.16Zm69.83,0L70.61,45.51c2.88-11.16,8.13-24.05,16.51-27.16A9.86,9.86,0,1,1,94,36.83Z"/></svg>