<svg id="Layer_1" data-name="Layer 1" xmlns="http://www.w3.org/2000/svg" viewBox="0 0 44.25 46.29"><defs><style>.cls-1{fill:#664d46;}.cls-2{fill:#f1dab7;}.cls-3{fill:#152132;}.cls-4{fill:#e5bd88;}.cls-5{fill:#58b7e4;}.cls-6{fill:#2c87c1;}.cls-7{fill:#fdfcfc;}.cls-8{fill:#f0d9b6;}.cls-9{fill:#967152;}.cls-10{fill:#e4bd89;}.cls-11{fill:#f6f6f7;}.cls-12{fill:#f5cd3c;}.cls-13{fill:#e6c08d;}.cls-14{fill:#9b7555;}.cls-15{fill:#192534;}</style></defs><title>int-logo-mailchip</title><path class="cls-1" d="M9.73,44.48a18,18,0,0,1-8-8.69A34.64,34.64,0,0,1,.12,31.57a1.8,1.8,0,0,1,.82-2.3,2.4,2.4,0,0,0,1.34-1.79.64.64,0,0,1,.09-.21c.14-.2.08-.35-.07-.53a2.33,2.33,0,0,1,1-3.75,1.36,1.36,0,0,0,.5-.24,10.67,10.67,0,0,1,3.29-2,.82.82,0,0,0,.54-.8c.08-1,.17-1.91.28-2.86a5.74,5.74,0,0,1,.85-2.86c.66-.89,1.27-1.82,2-2.69a.5.5,0,0,0,.06-.7A13.37,13.37,0,0,1,8.61,4.88,4.14,4.14,0,0,1,11.54.23,7.19,7.19,0,0,1,14.85.15a15.89,15.89,0,0,1,5.32,2.08.49.49,0,0,0,.68-.06c.39-.35.82-.66,1.22-1a4.06,4.06,0,0,1,2.88-1,9.42,9.42,0,0,1,4.24,1.37A29.67,29.67,0,0,1,36.77,8a35.24,35.24,0,0,1,6.41,9.87,11.82,11.82,0,0,1,1.08,4.94,4.06,4.06,0,0,1-1.69,3.39c-.44.31-.85.68-1.3,1a.57.57,0,0,0-.25.76,6.51,6.51,0,0,1-6.11,8.3.45.45,0,0,0-.44.25A20.82,20.82,0,0,1,31,40.69a19.07,19.07,0,0,1-13.48,5.6A16.51,16.51,0,0,1,9.73,44.48ZM29,16.83a30.66,30.66,0,0,1,3.56,6.45c.16.43.31.55.79.39a5.88,5.88,0,0,1,4.27.2l.35.11h0l.08.09a6.38,6.38,0,0,1,2,1.83c.11.17.23.16.38,0a11,11,0,0,0,1.69-1.43,2.49,2.49,0,0,0,.5-1.51,9.74,9.74,0,0,0-.81-4.19,26.53,26.53,0,0,0-2.51-4.89,27.43,27.43,0,0,0-2.73-3.79A31.24,31.24,0,0,0,29.3,3.62a10.71,10.71,0,0,0-4-1.69,2.54,2.54,0,0,0-1.41,0l-.11-.08a1.06,1.06,0,0,0-1.49.22c-.55.59-1.27,1-1.82,1.62A25.85,25.85,0,0,0,16.88,2a7.06,7.06,0,0,0-2.06-.5,6.82,6.82,0,0,0-2.42,0,2.85,2.85,0,0,0-2.3,3.41,11.74,11.74,0,0,0,1.83,4.9c.06.11.07.39.34.24.33,0,.57-.2.87-.28a9,9,0,0,1,4.38,0,20.33,20.33,0,0,1,8.35,4.11A25.43,25.43,0,0,1,28.15,16c.12.12.21.28.41.26h0a.43.43,0,0,0,.28.47h0ZM16.24,32.25A18.53,18.53,0,0,1,5.07,28.54c-.37-.28-.71-.6-1.09-.93a5.29,5.29,0,0,0-.7,2.67,2.17,2.17,0,0,1-.73,0,.93.93,0,0,0-.94,1.31,2.2,2.2,0,0,0,.48.83,10.23,10.23,0,0,0,1.85,3.89,12.29,12.29,0,0,0,4.47,3.8,12.26,12.26,0,0,0,8.37,1.14,5.43,5.43,0,0,0,4-3.3l.23-.5a4.11,4.11,0,0,1,.19,1.07,7.44,7.44,0,0,0,.9-3.3l.67,1.29a6.92,6.92,0,0,0,.36-3.29c.25.11.25.41.49.52a7.4,7.4,0,0,0-2.07-6.2l-.37-.41A8.52,8.52,0,0,0,23.1,26c-.17-.14-.38,0-.55-.16a6.16,6.16,0,0,0,2.15-3.45l-.79.59A8.65,8.65,0,0,0,24,21.19a4.58,4.58,0,0,0-3.55-4.88,11.15,11.15,0,0,0-3,0,5.08,5.08,0,0,1-4-1.5,2.29,2.29,0,0,0-2-.76,1.52,1.52,0,0,0-1.07.57A3.83,3.83,0,0,0,9.52,17c-.19,1.26-.21,2.54-.43,3.8a1.69,1.69,0,0,1-.51,1,16,16,0,0,0-3.34,1.85,5,5,0,0,0-.76.73,1.55,1.55,0,0,0-.67.14.77.77,0,0,0-.29,1.29,15.26,15.26,0,0,0,8,5,16.74,16.74,0,0,0,4.43.58,2.22,2.22,0,0,1,2.39,1.56c.38,1.91-.65,3.34-2.73,3.71a11.46,11.46,0,0,1-5.39-.48A16.41,16.41,0,0,1,4.3,32.89a6.57,6.57,0,0,1-1.41-1.62c.22-.05.28.11.4.15a18.8,18.8,0,0,0,5.23,3.25,13.94,13.94,0,0,0,5.74,1.17,5.55,5.55,0,0,0,2-.35,1.75,1.75,0,0,0,1.17-1.21c.17-.27.06-.56.07-.84A1.11,1.11,0,0,0,16.24,32.25Zm15.2-5.39a10,10,0,0,0-.55,2.92l-.47-.85a4.92,4.92,0,0,0,.68,3.55,4.56,4.56,0,0,0,5,2.12,4.85,4.85,0,0,0,3.62-4.28A4.91,4.91,0,0,0,36.13,25a4.46,4.46,0,0,0-2.77.18,1.9,1.9,0,0,0-1,1.06,6.77,6.77,0,0,0-.52,1.83Z"/><path class="cls-2" d="M8.67,21.77c.49.24.92.32,1.25-.27.09-.16.31-.23.47-.35a3.14,3.14,0,0,1,4.41,2.79.39.39,0,0,0,.24.4q1,.52,1.89,1.07a2.76,2.76,0,0,0,.85.2,6.87,6.87,0,0,1,3.15,1.46.61.61,0,0,0,.21.07l.37.41a7.4,7.4,0,0,1,2.07,6.2c-.24-.11-.25-.4-.49-.52a6.92,6.92,0,0,1-.36,3.29l-.67-1.29a7.44,7.44,0,0,1-.9,3.3A4.11,4.11,0,0,0,21,37.48l-.23.5a5.43,5.43,0,0,1-4,3.3,12.26,12.26,0,0,1-8.37-1.14,8.55,8.55,0,0,0,2.17-1.55c.19-.2.33-.29-.09-.42a17.34,17.34,0,0,1-7.56-4.74c-.29-.31-.56-.65-.84-1a2.2,2.2,0,0,1-.48-.83.93.93,0,0,1,.94-1.31,2.17,2.17,0,0,0,.73,0v1.14c-.12,0-.18-.2-.4-.15A6.57,6.57,0,0,0,4.3,32.89a16.41,16.41,0,0,0,5.93,3.24,11.46,11.46,0,0,0,5.39.48c2.08-.36,3.11-1.8,2.73-3.71a1.47,1.47,0,0,0-.76-1.82,6.82,6.82,0,0,0-2.45-.59,19.49,19.49,0,0,1-8.5-3.27,5.75,5.75,0,0,1-2.16-2.88,5,5,0,0,1,.76-.73,16,16,0,0,1,3.34-1.85ZM10,23a.63.63,0,0,0,.36.56c.26.11.44,0,.59-.24a4.5,4.5,0,0,1,1,.37c0,.35.12.6.52.62a1,1,0,0,0,.91-.65c.09-.44-.21-.55-.54-.64a1.44,1.44,0,0,0-2-.88s-.05.1-.08.16C10.1,22.26,9.9,22.45,10,23Z"/><path class="cls-3" d="M29,16.83a30.66,30.66,0,0,1,3.56,6.45c.16.43.31.55.79.39a5.88,5.88,0,0,1,4.27.2l.35.11a1.42,1.42,0,0,0-.14-.63A30.19,30.19,0,0,0,32.51,14a30.78,30.78,0,0,0-6.39-6.14c-.12-.08-.21-.25-.4-.16,0,.21.17.28.27.38a46.74,46.74,0,0,1,3.72,4.14,28.83,28.83,0,0,1,3.19,4.63c-.23.05-.29-.12-.38-.23-1-1.12-1.89-2.24-2.85-3.36a43.3,43.3,0,0,0-6-6.24A39.48,39.48,0,0,0,17.22,2.5c-.78-.39-1.6-.67-2.4-1a6.82,6.82,0,0,0-2.42,0,2.85,2.85,0,0,0-2.3,3.41,11.74,11.74,0,0,0,1.83,4.9c.06.11.07.39.34.24a3.69,3.69,0,0,1,2.22-1.76c0,.19-.12.25-.14.37h0a5.8,5.8,0,0,0,1.18-.49c.57-.2.64-.23.94-.17,0,.21-.32.28-.31.57A5.68,5.68,0,0,1,19,8.25c-.31.25-.69.25-.87.56,2.52,0,3.47.16,4.15.66A3,3,0,0,0,21,9.71a7.2,7.2,0,0,1,3,1.37L23,11c0,.07,0,.11,0,.12l.19.13a17.58,17.58,0,0,1,4.1,3.45,6.62,6.62,0,0,1,1.19,1.58h0a.49.49,0,0,1,.28.47h0Z"/><path class="cls-4" d="M12.1,19.26c0-.26-.08-.55-.38-.63s-.49.14-.64.36a3.72,3.72,0,0,0-.67,2.17c-.16.11-.39.19-.47.35-.33.59-.77.51-1.25.27l-.09,0a1.69,1.69,0,0,0,.51-1c.21-1.26.24-2.54.43-3.8a3.83,3.83,0,0,1,.92-2.35,1.55,1.55,0,0,1,1.58.8,6.08,6.08,0,0,0,4,2.45,11.67,11.67,0,0,0,3.4,0,3.87,3.87,0,0,1,4.46,3.12c0,.09,0,.19.09.25A8.65,8.65,0,0,1,23.91,23l.79-.59a6.16,6.16,0,0,1-2.15,3.45c.17.19.38,0,.55.16a8.52,8.52,0,0,1-1.95,1.15.61.61,0,0,1-.21-.07,6.87,6.87,0,0,0-3.15-1.46,2.76,2.76,0,0,1-.85-.2Q16,24.86,15,24.34a.39.39,0,0,1-.24-.4,3.12,3.12,0,0,0-2.9-3A3.76,3.76,0,0,0,12.1,19.26ZM16.3,23a1.52,1.52,0,0,0,.4-.11,4.23,4.23,0,0,1,3.58,0c.2.08.48.31.62.11s-.15-.43-.31-.59a3,3,0,0,0-4.25.12c-.08.09-.15.19-.2.26S16.2,23,16.3,23Zm.2.71c-.1.06-.24.14-.16.29a.24.24,0,0,0,.29.1,3.61,3.61,0,0,1,2.16.32c.11,0,.25.13.34,0s0-.25-.12-.35a1.93,1.93,0,0,0-1.58-.62A1.54,1.54,0,0,0,16.5,23.67Z"/><path class="cls-5" d="M39.26,13.93a27.43,27.43,0,0,0-2.73-3.79A31.24,31.24,0,0,0,29.3,3.62a10.71,10.71,0,0,0-4-1.69,2.55,2.55,0,0,0-1.41,0V2a1.87,1.87,0,0,1,.17,1.52,7.45,7.45,0,0,0,1.23-.38,1.7,1.7,0,0,1,1.91.27A3.12,3.12,0,0,1,27,4.82a10.84,10.84,0,0,1-.24,2,.53.53,0,0,0,.21.6,30.93,30.93,0,0,1,4.74,4.19,35.23,35.23,0,0,1,3.81,4.88c.15.23.23.26.45.08C37,15.68,38.15,14.81,39.26,13.93Z"/><path class="cls-6" d="M39.26,13.93c-1.11.88-2.23,1.75-3.33,2.64-.22.18-.31.15-.45-.08a35.23,35.23,0,0,0-3.81-4.88,30.93,30.93,0,0,0-4.74-4.19.53.53,0,0,1-.21-.6,10.84,10.84,0,0,0,.24-2c-.78.61-1.51,1.28-2.24,2,.14.36.5.47.77.68.05,0,.11,0,.09.1h0c.11,0,.17,0,.19.1h0l0,0c.19-.09.28.08.4.16A30.78,30.78,0,0,1,32.51,14a30.19,30.19,0,0,1,5.3,9.38,1.42,1.42,0,0,1,.14.63h0c.06,0,.07,0,.08.09a6.38,6.38,0,0,1,2,1.83c.11.17.23.16.38,0a11,11,0,0,0,1.69-1.43,2.49,2.49,0,0,0,.5-1.51,9.74,9.74,0,0,0-.81-4.19A26.53,26.53,0,0,0,39.26,13.93Z"/><path class="cls-7" d="M3.27,30.28v1.14a18.8,18.8,0,0,0,5.23,3.25,13.94,13.94,0,0,0,5.74,1.17,5.55,5.55,0,0,0,2-.35,1.75,1.75,0,0,0,1.17-1.21c-.29,0-.58.07-.87.09A15.49,15.49,0,0,1,8.9,32.94a2.07,2.07,0,0,1-.83-.55c.11-.08.19,0,.28,0a31.17,31.17,0,0,0,4.24,1.11,10.9,10.9,0,0,0,4.9-.05,1.11,1.11,0,0,0-1.25-1.21A18.53,18.53,0,0,1,5.07,28.54c-.37-.28-.71-.6-1.09-.93A5.29,5.29,0,0,0,3.27,30.28Z"/><path class="cls-8" d="M32.37,26.23a1.9,1.9,0,0,1,1-1.06A4.46,4.46,0,0,1,36.13,25a4.91,4.91,0,0,1,3.57,5.34,4.85,4.85,0,0,1-3.62,4.28,4.56,4.56,0,0,1-5-2.12,4.92,4.92,0,0,1-.68-3.55l.47.85a10,10,0,0,1,.55-2.92l.41,1.2A6.77,6.77,0,0,1,32.37,26.23Zm1.27,2.13c.51.6.49.72-.31,1.13a1.61,1.61,0,0,0-1,1.6,1.75,1.75,0,0,0,1.06,1.61,1.4,1.4,0,0,0,1.41-.1c.08-.06.2-.13.16-.25s-.18-.07-.28,0A1.23,1.23,0,0,1,33.48,32a10.42,10.42,0,0,0,1.31-.36A3.37,3.37,0,0,0,36.7,29c0-.24-.2-.47,0-.7a2.89,2.89,0,0,1,.35,2.61c0,.14-.24.32,0,.44s.35,0,.48-.19a2.05,2.05,0,0,0,.45-1,2.87,2.87,0,0,0-1-3,2.79,2.79,0,0,0-3.18-.26,1.73,1.73,0,0,0-1,1.45c0,.2,0,.45.21.52s.24-.23.35-.35Z"/><path class="cls-8" d="M10.43,14.6a1.55,1.55,0,0,1,1.58.8,6.08,6.08,0,0,0,4,2.45,11.67,11.67,0,0,0,3.4,0,3.87,3.87,0,0,1,4.46,3.12c0,.09,0,.19.09.25a4.58,4.58,0,0,0-3.55-4.88,11.15,11.15,0,0,0-3,0,5.08,5.08,0,0,1-4-1.5,2.29,2.29,0,0,0-2-.76A1.52,1.52,0,0,0,10.43,14.6Z"/><path class="cls-9" d="M14.35,8.66c0-.12.18-.18.14-.37A3.69,3.69,0,0,0,12.27,10c.33,0,.57-.2.87-.28a9,9,0,0,1,4.38,0,20.33,20.33,0,0,1,8.35,4.11A25.43,25.43,0,0,1,28.15,16c.12.12.21.28.41.26a6.62,6.62,0,0,0-1.19-1.58,17.58,17.58,0,0,0-4.1-3.45l-.19-.13s0-.05,0-.12l1,.09a7.2,7.2,0,0,0-3-1.37,3,3,0,0,1,1.35-.24c-.68-.5-1.63-.65-4.15-.66.18-.31.55-.31.87-.56a5.68,5.68,0,0,0-2.91.31c0-.29.27-.36.31-.57-.29-.06-.36,0-.94.17a5.8,5.8,0,0,1-1.18.49l0,.05s0,0,0,0Z"/><path class="cls-10" d="M18.35,32.9a1.47,1.47,0,0,0-.76-1.82,6.82,6.82,0,0,0-2.45-.59,19.49,19.49,0,0,1-8.5-3.27,5.75,5.75,0,0,1-2.16-2.88,1.55,1.55,0,0,0-.67.14.77.77,0,0,0-.29,1.29,15.26,15.26,0,0,0,8,5,16.74,16.74,0,0,0,4.43.58A2.22,2.22,0,0,1,18.35,32.9Z"/><path class="cls-4" d="M8.41,40.13a8.55,8.55,0,0,0,2.17-1.55c.19-.2.33-.29-.09-.42a17.34,17.34,0,0,1-7.56-4.74c-.29-.31-.56-.65-.84-1a10.23,10.23,0,0,0,1.85,3.89A12.29,12.29,0,0,0,8.41,40.13Z"/><path class="cls-11" d="M25.49,7.46c-.27-.21-.63-.33-.77-.68a2.57,2.57,0,0,1-.81-.64,3.8,3.8,0,0,1-.78-.61A3.63,3.63,0,0,1,22.36,5l-.41-.29a2.77,2.77,0,0,1-.68-.45,3,3,0,0,1-.77-.48A25.85,25.85,0,0,0,16.88,2a7.05,7.05,0,0,0-2.06-.5c.8.33,1.62.6,2.4,1A39.48,39.48,0,0,1,23.68,7a43.3,43.3,0,0,1,6,6.24c1,1.12,1.9,2.24,2.85,3.36.09.11.15.29.38.23a28.83,28.83,0,0,0-3.19-4.63A46.74,46.74,0,0,0,26,8.05c-.11-.11-.31-.17-.27-.38l0,0h0c-.14.1-.18,0-.19-.1h0C25.49,7.58,25.5,7.5,25.49,7.46Z"/><path class="cls-12" d="M20.5,3.74a3,3,0,0,0,.77.48l1-.81-.34,1.26.41.29,2.06-.62c-.47.49-1,.76-1.29,1.18a3.79,3.79,0,0,0,.78.61l3.32-2.71a1.7,1.7,0,0,0-1.91-.27,7.45,7.45,0,0,1-1.23.38,1.13,1.13,0,0,1-.68.22A16.14,16.14,0,0,1,23.93,2V2l-.11-.08a1.06,1.06,0,0,0-1.49.22C21.77,2.71,21.06,3.14,20.5,3.74Z"/><path class="cls-13" d="M17.49,33.46a10.9,10.9,0,0,1-4.9.05A31.17,31.17,0,0,1,8.34,32.4c-.09,0-.17-.08-.28,0a2.07,2.07,0,0,0,.83.55,15.49,15.49,0,0,0,7.65,1.44c.29,0,.58-.06.87-.09C17.59,34,17.48,33.74,17.49,33.46Z"/><path class="cls-9" d="M28.84,16.74a.49.49,0,0,0-.28-.47A.43.43,0,0,0,28.84,16.74Z"/><path class="cls-3" d="M38,24.07s0-.09-.08-.09Z"/><path class="cls-9" d="M29,16.83l-.14-.1Z"/><path class="cls-1" d="M11.9,20.9a3.76,3.76,0,0,0,.19-1.64c0-.26-.08-.55-.38-.63s-.49.14-.64.36a3.72,3.72,0,0,0-.67,2.17A3.11,3.11,0,0,1,11.9,20.9Z"/><path class="cls-10" d="M10.93,23.34a4.51,4.51,0,0,1,1,.37,1.14,1.14,0,0,1,.88-.67,1.44,1.44,0,0,0-2-.88s-.05.1-.08.16A1.25,1.25,0,0,1,10.93,23.34Z"/><path class="cls-14" d="M12.77,23a1.14,1.14,0,0,0-.88.67c0,.35.12.6.52.62a1,1,0,0,0,.91-.65C13.4,23.24,13.1,23.13,12.77,23Z"/><path class="cls-14" d="M10.93,23.34a1.25,1.25,0,0,0-.21-1c-.61-.06-.82.13-.75.7a.63.63,0,0,0,.36.56C10.59,23.69,10.78,23.54,10.93,23.34Z"/><path class="cls-14" d="M16.13,22.76c0,.16.06.22.17.2a1.52,1.52,0,0,0,.4-.11,4.23,4.23,0,0,1,3.58,0c.2.08.48.31.62.11s-.15-.43-.31-.59a3,3,0,0,0-4.25.12C16.25,22.59,16.19,22.69,16.13,22.76Z"/><path class="cls-14" d="M17.43,23.42a1.54,1.54,0,0,0-.92.25c-.1.06-.24.14-.16.29a.24.24,0,0,0,.29.1,3.61,3.61,0,0,1,2.16.32c.11,0,.25.13.34,0s0-.25-.12-.35A1.93,1.93,0,0,0,17.43,23.42Z"/><path class="cls-15" d="M27.23,3.42,23.91,6.13a2.57,2.57,0,0,0,.81.64c.73-.67,1.46-1.35,2.24-2A3.12,3.12,0,0,0,27.23,3.42Z"/><path class="cls-15" d="M23.93,2a16.14,16.14,0,0,0-.52,1.74,1.13,1.13,0,0,0,.68-.22A1.87,1.87,0,0,0,23.93,2Z"/><path class="cls-3" d="M25.57,7.55c0,.12.05.21.19.1C25.74,7.54,25.68,7.51,25.57,7.55Z"/><path class="cls-3" d="M25.49,7.46s0,.12.09.1S25.54,7.47,25.49,7.46Z"/><path class="cls-4" d="M33.48,32a10.42,10.42,0,0,0,1.31-.36A3.37,3.37,0,0,0,36.7,29c0-.24-.2-.47,0-.7a2.27,2.27,0,0,0-1.94-.83,1.62,1.62,0,0,0-1.48,1l.34-.09a.48.48,0,0,1,.67.08.75.75,0,0,1,.23.76,1.63,1.63,0,0,1-.87,1A1.07,1.07,0,0,0,33.48,32Z"/><path class="cls-14" d="M33.29,28.45a1.62,1.62,0,0,1,1.48-1,2.27,2.27,0,0,1,1.94.83,2.89,2.89,0,0,1,.35,2.61c0,.14-.24.32,0,.44s.35,0,.48-.19a2.05,2.05,0,0,0,.45-1,2.87,2.87,0,0,0-1-3,2.79,2.79,0,0,0-3.18-.26,1.73,1.73,0,0,0-1,1.45c0,.2,0,.45.21.52S33.18,28.57,33.29,28.45Z"/><path class="cls-14" d="M33.48,32a1.07,1.07,0,0,1,.19-1.81,1.63,1.63,0,0,0,.87-1,.75.75,0,0,0-.23-.76.48.48,0,0,0-.67-.08c.51.6.49.72-.31,1.13a1.61,1.61,0,0,0-1,1.6,1.75,1.75,0,0,0,1.06,1.61,1.4,1.4,0,0,0,1.41-.1c.08-.06.2-.13.16-.25s-.18-.07-.28,0A1.23,1.23,0,0,1,33.48,32Z"/><path class="cls-3" d="M14.35,8.66l0,0s0,0,0,0l0-.05Z"/><path class="cls-15" d="M23.13,5.52c.34-.42.83-.69,1.29-1.18L22.36,5A3.63,3.63,0,0,0,23.13,5.52Z"/><path class="cls-15" d="M21.95,4.67l.34-1.26-1,.81A2.77,2.77,0,0,0,21.95,4.67Z"/></svg>